<?xml version="1.0"?>
<svg xmlns="http://www.w3.org/2000/svg" viewBox="0 0 100.4 100.4">
<g id="g290" transform="matrix(1.2807942,0,0,1.2807942,-136.89855,-7.0227137)" style="fill:#fde035;fill-opacity:1">
    <path d="m 160.27344,49.763672 c -3.00227,-0.888901 -5.83791,-1.601805 -8.56641,-2.154297 a 4.3000002,4.3000002 0 0 0 -0.0332,0.494141 v 25.658203 a 4.3000002,4.3000002 0 0 0 4.29883,4.300781 4.3000002,4.3000002 0 0 0 4.30078,-4.300781 z" style="baseline-shift:baseline;display:inline;overflow:visible;fill:#fde035;stroke:#ffffff;stroke-width:0;stroke-linecap:round;stroke-miterlimit:10;paint-order:fill markers stroke;enable-background:accumulate;stop-color:#000000;fill-opacity:1" id="path290"></path>
    <path d="m 152.25195,43.660156 c 2.76852,0.543778 5.62847,1.245131 8.62891,2.115235 l 6.85937,-27.09375 A 4.4425998,4.4425998 0 0 0 164.52344,13.285156 4.4425998,4.4425998 0 0 0 163.37109,13.150391 4.4425998,4.4425998 0 0 0 159.12695,16.5 Z" style="baseline-shift:baseline;display:inline;overflow:visible;fill:#fde035;stroke:#ffffff;stroke-width:0;stroke-linecap:round;stroke-miterlimit:10;paint-order:fill markers stroke;enable-background:accumulate;stop-color:#000000;fill-opacity:1" id="path287"></path>
    <path d="m 126.49414,42.851562 c 3.01782,-0.372929 5.95591,-0.604716 8.88477,-0.671875 l -4.86914,-27.455078 a 4.4339199,4.4339199 0 0 0 -4.5625,-3.65625 4.4339199,4.4339199 0 0 0 -0.57618,0.06445 4.4339199,4.4339199 0 0 0 -3.59179,5.140624 z" style="baseline-shift:baseline;display:inline;overflow:visible;fill:#fde035;stroke:#ffffff;stroke-width:0;stroke-linecap:round;stroke-miterlimit:10;paint-order:fill markers stroke;enable-background:accumulate;stop-color:#000000;fill-opacity:1" id="path286"></path>
    <path d="m 114.4668,44.923828 c 3.05655,-0.646876 5.97266,-1.194158 8.80273,-1.626953 a 4.4736199,4.4736199 0 0 0 -0.0371,-0.173828 l -4.43945,-18.757813 a 4.4736199,4.4736199 0 0 0 -4.2207,-3.441406 4.4736199,4.4736199 0 0 0 -1.16211,0.119141 4.4736199,4.4736199 0 0 0 -3.32227,5.382812 z" style="baseline-shift:baseline;display:inline;overflow:visible;fill:#fde035;stroke:#ffffff;stroke-width:0;stroke-linecap:round;stroke-miterlimit:10;paint-order:fill markers stroke;enable-background:accumulate;stop-color:#000000;fill-opacity:1" id="path285"></path>
    <path d="m 123.32227,47.316406 c -2.78051,0.446961 -5.67051,1.009581 -8.73243,1.671875 v 18.765625 a 4.3660898,4.3660898 0 0 0 4.36524,4.365235 4.3660898,4.3660898 0 0 0 4.36719,-4.365235 z" style="baseline-shift:baseline;display:inline;overflow:visible;fill:#fde035;stroke:#ffffff;stroke-width:0;stroke-linecap:round;stroke-miterlimit:10;paint-order:fill markers stroke;enable-background:accumulate;stop-color:#000000;fill-opacity:1" id="path282"></path>
    <path d="m 135.82422,46.121094 c -2.96348,0.05611 -5.94167,0.294605 -9.0293,0.691406 v 29.757812 a 4.53791,4.53791 0 0 0 4.53711,4.53711 4.53791,4.53791 0 0 0 4.53711,-4.53711 V 46.714844 a 4.53791,4.53791 0 0 0 -0.0449,-0.59375 z" style="baseline-shift:baseline;display:inline;overflow:visible;fill:#fde035;stroke:#ffffff;stroke-width:0;stroke-linecap:round;stroke-miterlimit:10;paint-order:fill markers stroke;enable-background:accumulate;stop-color:#000000;fill-opacity:1" id="path279"></path>
    <path d="m 148.00781,46.947266 c -2.94018,-0.453346 -5.77997,-0.71337 -8.59961,-0.802735 v 33.320313 a 4.3000002,4.3000002 0 0 0 4.29883,4.298828 4.3000002,4.3000002 0 0 0 4.30078,-4.298828 z" style="baseline-shift:baseline;display:inline;overflow:visible;fill:#fde035;stroke:#ffffff;stroke-width:0;stroke-linecap:round;stroke-miterlimit:10;paint-order:fill markers stroke;enable-background:accumulate;stop-color:#000000;fill-opacity:1" id="path277"></path>
    <path d="m 150.93359,5.5976562 a 4.4352798,4.4352798 0 0 0 -4.10351,3.5097657 l -7.00977,33.0996091 c 2.9176,0.101741 5.86008,0.37355 8.89258,0.835938 l 6.79492,-32.097656 a 4.4352798,4.4352798 0 0 0 -3.41992,-5.257813 4.4352798,4.4352798 0 0 0 -1.1543,-0.089844 z" style="baseline-shift:baseline;display:inline;overflow:visible;fill:#fde035;stroke:#ffffff;stroke-width:0;stroke-linecap:round;stroke-miterlimit:10;paint-order:fill markers stroke;enable-background:accumulate;stop-color:#000000;fill-opacity:1" id="path274"></path>
    <path d="m 163.96768,59.100617 v 6.080078 0 6.082031 l 16.96484,-16.964844 a 4.3000002,4.3000002 0 0 0 0,-6.082031 4.3000002,4.3000002 0 0 0 -3.03906,-1.259766 4.3000002,4.3000002 0 0 0 -3.04102,1.259766 z" style="baseline-shift:baseline;display:inline;overflow:visible;fill:#fde035;stroke-width:0;stroke-linecap:round;stroke-miterlimit:10;stroke-dasharray:none;paint-order:fill markers stroke;enable-background:accumulate;stop-color:#000000;stop-opacity:1;fill-opacity:1" id="path122"></path>
  </g>
</svg>